<?xml version="1.0" standalone="no"?>
<!DOCTYPE svg PUBLIC "-//W3C//DTD SVG 20010904//EN"
 "http://www.w3.org/TR/2001/REC-SVG-20010904/DTD/svg10.dtd">
<svg version="1.0" xmlns="http://www.w3.org/2000/svg"
 width="512.000000pt" height="512.000000pt" viewBox="0 0 512.000000 512.000000"
 preserveAspectRatio="xMidYMid meet">

<g transform="translate(0.000000,512.000000) scale(0.100000,-0.100000)"
fill="#000000" stroke="none">
<path d="M2031 4350 c-29 -13 -100 -76 -207 -180 -208 -205 -224 -214 -410
-218 l-131 -3 -7 39 c-8 53 -60 120 -115 149 -41 21 -56 23 -201 23 -145 0
-160 -2 -201 -23 -55 -29 -107 -96 -115 -148 l-7 -39 -56 0 c-201 0 -355 -89
-434 -250 l-32 -65 0 -1290 0 -1290 39 -72 c45 -86 110 -149 197 -195 l64 -33
2145 0 2145 0 72 39 c89 47 154 115 196 204 l32 67 3 1250 c2 926 0 1265 -9
1307 -27 132 -145 259 -282 305 -46 15 -116 18 -602 23 l-550 5 -55 29 c-37
19 -107 80 -215 186 -88 87 -178 167 -200 179 -39 21 -50 21 -530 21 -468 0
-492 -1 -534 -20z m1134 -348 c178 -177 239 -219 370 -252 73 -19 111 -20 580
-20 277 0 517 -3 535 -7 48 -9 125 -87 139 -140 8 -29 11 -392 9 -1260 l-3
-1218 -28 -42 c-15 -24 -46 -55 -69 -70 l-42 -28 -2095 0 -2096 0 -42 28 c-24
15 -55 46 -70 69 l-28 42 -3 1220 c-2 862 0 1232 8 1259 14 50 65 106 116 129
38 16 81 18 552 18 475 1 517 2 588 20 128 33 191 76 369 252 l160 158 445 0
445 0 160 -158z"/>
<path d="M593 3510 c-13 -5 -32 -24 -43 -42 -17 -28 -20 -51 -20 -156 0 -222
4 -225 341 -220 l241 3 29 33 29 32 0 140 c0 86 -5 149 -12 165 -23 51 -46 55
-305 54 -131 0 -248 -4 -260 -9z"/>
<path d="M2395 3510 c-335 -53 -632 -241 -810 -515 -87 -133 -127 -222 -165
-370 -27 -103 -38 -327 -21 -446 58 -405 328 -753 710 -914 115 -49 216 -73
358 -86 385 -37 787 143 1025 458 159 211 238 445 238 702 0 139 -11 216 -45
336 -117 410 -461 728 -889 821 -85 19 -317 27 -401 14z m390 -232 c413 -103
706 -454 732 -877 19 -321 -128 -635 -391 -828 -180 -133 -380 -191 -615 -180
-139 6 -244 32 -360 87 -602 288 -737 1073 -267 1546 148 149 355 250 561 274
98 11 245 2 340 -22z"/>
<path d="M2470 2874 c-131 -24 -271 -114 -344 -221 -66 -97 -88 -167 -94 -290
-4 -85 -1 -112 18 -170 29 -89 63 -146 124 -211 211 -223 568 -221 777 4 93
101 139 216 139 352 0 236 -129 425 -347 509 -67 25 -207 39 -273 27z m203
-230 c65 -22 148 -100 177 -166 70 -162 6 -337 -150 -415 -56 -28 -75 -33
-141 -33 -65 0 -85 5 -137 30 -118 59 -177 154 -177 285 0 94 24 158 83 218
96 99 210 126 345 81z"/>
</g>
</svg>
